<svg xmlns="http://www.w3.org/2000/svg" width="157" height="15" viewBox="0 0 157 15" fill="none">
  <path d="M10.5024 0.801025H0.223999V2.86663H4.15439V14.5466H6.59038V2.86663H10.5024V0.801025Z" fill="black"/>
  <path d="M18.3064 5.27911C17.8703 4.86957 17.3522 4.55733 16.7864 4.3631C15.5 3.94017 14.112 3.94017 12.8256 4.3631C12.2624 4.55803 11.7469 4.86994 11.3128 5.27831C10.8854 5.6934 10.554 6.19688 10.3416 6.7535C10.1013 7.39741 9.98406 8.08072 9.99601 8.76791V9.97272C9.98551 10.6564 10.1027 11.336 10.3416 11.9767C10.5521 12.5373 10.8837 13.0446 11.3128 13.4623C11.7472 13.8703 12.2626 14.1821 12.8256 14.3775C14.1121 14.7999 15.4999 14.7999 16.7864 14.3775C17.3522 14.1836 17.8703 13.8716 18.3064 13.4623C18.7355 13.0446 19.0671 12.5373 19.2776 11.9767C19.5165 11.336 19.6337 10.6564 19.6232 9.97272V8.76791C19.6352 8.08072 19.5179 7.39741 19.2776 6.7535C19.0651 6.19716 18.7337 5.69397 18.3064 5.27911ZM15.7624 12.4423C15.1414 12.6375 14.4754 12.6375 13.8544 12.4423C13.5709 12.3496 13.3121 12.1937 13.0976 11.9863C12.8691 11.7544 12.6972 11.473 12.5952 11.1639C12.4649 10.7668 12.403 10.3505 12.412 9.9327V8.8015C12.3747 8.43325 12.4129 8.06124 12.5243 7.70826C12.6357 7.35529 12.818 7.02879 13.06 6.74872C13.5592 6.35791 14.1748 6.14554 14.8088 6.14554C15.4428 6.14554 16.0584 6.35791 16.5576 6.74872C16.7993 7.02897 16.9814 7.35551 17.0928 7.70844C17.2042 8.06136 17.2426 8.43326 17.2056 8.8015V9.9327C17.2143 10.3506 17.1521 10.7668 17.0216 11.1639C16.9192 11.4727 16.7476 11.754 16.52 11.9863C16.3052 12.1936 16.0461 12.3495 15.7624 12.4423Z" fill="black"/>
  <path d="M30.6424 4.2688H27.6024L23.8296 8.53599V0.800781H21.4296V14.5472H23.8296V11.4872L24.9616 10.2296L27.72 14.5328L27.7296 14.5472H30.792L26.6424 8.53039L30.6424 4.2688Z" fill="black"/>
  <path d="M38.7696 4.91524C38.374 4.62131 37.9276 4.40273 37.4528 4.27044C36.1418 3.91517 34.752 3.98378 33.4824 4.46644C32.8627 4.72599 32.2709 5.04764 31.716 5.42645L31.6896 5.44405L32.876 7.20406L32.9024 7.18326C33.7156 6.52634 34.7298 6.16876 35.7752 6.17044C36.264 6.12823 36.7504 6.27417 37.1352 6.57845C37.2923 6.76192 37.4109 6.97507 37.484 7.20525C37.5571 7.43544 37.5832 7.67796 37.5608 7.91844V8.27605H35.2568C34.6407 8.26301 34.0259 8.33845 33.4312 8.50005C32.9903 8.61985 32.5792 8.83019 32.224 9.11766C31.9279 9.36605 31.701 9.68685 31.5656 10.0489C31.4317 10.4241 31.3653 10.8201 31.3696 11.2184V11.8112C31.3492 12.2128 31.4215 12.6137 31.5809 12.9829C31.7403 13.352 31.9825 13.6795 32.2888 13.94C33.0338 14.4858 33.9462 14.7538 34.868 14.6976C35.1568 14.6958 35.4447 14.6647 35.7272 14.6048C36.0217 14.5434 36.3093 14.4526 36.5856 14.3336C36.8523 14.2195 37.1014 14.0681 37.3256 13.884C37.4971 13.7456 37.6412 13.5763 37.7504 13.3848L37.784 14.5496H39.944V7.34324C39.9527 6.86032 39.8468 6.38221 39.6352 5.94805C39.4289 5.5425 39.1328 5.18929 38.7696 4.91524ZM37.56 10.1536V10.4001C37.5644 10.7114 37.546 11.0226 37.5048 11.3313C37.458 11.5841 37.3312 11.8151 37.1432 11.9904C36.8564 12.2354 36.524 12.4214 36.1651 12.5375C35.8062 12.6537 35.428 12.6977 35.052 12.6672C34.6918 12.6923 34.3336 12.5969 34.0336 12.396C33.9214 12.3062 33.8321 12.1911 33.773 12.0601C33.7139 11.9291 33.6867 11.786 33.6936 11.6424V11.4192C33.6857 11.2496 33.7129 11.0801 33.7734 10.9213C33.834 10.7626 33.9266 10.6181 34.0456 10.4969C34.4102 10.2287 34.8618 10.1063 35.312 10.1536H37.56Z" fill="black"/>
  <path d="M55.5968 5.02012C55.2755 4.69868 54.8893 4.44965 54.464 4.28973C54.0304 4.12853 53.5713 4.0472 53.1088 4.04971C52.4479 4.02403 51.7907 4.1591 51.1936 4.44332C50.6946 4.71658 50.267 5.10358 49.9456 5.57293C49.7367 5.10525 49.3778 4.72064 48.9256 4.48011C48.4023 4.1894 47.8121 4.041 47.2136 4.04971C46.6105 4.03376 46.0136 4.1758 45.4824 4.46173C45.0301 4.71507 44.6581 5.0904 44.4088 5.54493V4.27213H42.1392V14.5505H44.5392V8.25291C44.5172 7.97312 44.5509 7.69175 44.6384 7.42508C44.7258 7.1584 44.8653 6.91173 45.0488 6.69932C45.2245 6.52861 45.4332 6.3954 45.662 6.30779C45.8909 6.22019 46.1351 6.18003 46.38 6.18973C46.6215 6.18775 46.862 6.2217 47.0936 6.29051C47.3108 6.35714 47.5073 6.47865 47.664 6.64332C47.8413 6.83737 47.9748 7.06741 48.0552 7.31773C48.1622 7.66221 48.2119 8.02193 48.2024 8.38253V14.5505H50.6024V8.34571C50.5928 7.99009 50.6483 7.63573 50.7664 7.30013C50.8567 7.051 50.9997 6.82424 51.1856 6.63531C51.3513 6.4743 51.5536 6.35597 51.7752 6.29051C52.2186 6.15965 52.6899 6.15633 53.1352 6.28091C53.3533 6.34273 53.5527 6.45794 53.7152 6.61612C53.9009 6.80851 54.038 7.04246 54.1152 7.29852C54.2219 7.66197 54.2713 8.03984 54.2616 8.41851V14.5497H56.6616V7.93692C56.6728 7.35761 56.5745 6.7814 56.372 6.23853C56.1994 5.78375 55.9356 5.3691 55.5968 5.02012Z" fill="black"/>
  <path d="M65.7984 4.91524C65.4027 4.62131 64.9564 4.40273 64.4816 4.27044C63.1706 3.91517 61.7808 3.98378 60.5112 4.46644C59.8915 4.72599 59.2997 5.04764 58.7448 5.42645L58.7184 5.44405L59.9048 7.20406L59.9312 7.18326C60.7444 6.52634 61.7586 6.16876 62.804 6.17044C63.2927 6.12832 63.7791 6.27425 64.164 6.57845C64.321 6.76192 64.4397 6.97507 64.5128 7.20525C64.5859 7.43544 64.612 7.67796 64.5896 7.91844V8.27605H62.2856C61.6695 8.26302 61.0547 8.33846 60.46 8.50005C60.0189 8.62003 59.6075 8.83034 59.252 9.11766C58.9561 9.36615 58.7296 9.68694 58.5944 10.0489C58.4602 10.424 58.3936 10.82 58.3976 11.2184V11.8112C58.3773 12.2129 58.4497 12.6138 58.6092 12.983C58.7688 13.3521 59.0111 13.6796 59.3176 13.94C60.0623 14.4857 60.9744 14.7537 61.896 14.6976C62.1846 14.6951 62.4722 14.6632 62.7544 14.6024C63.0492 14.5411 63.337 14.4503 63.6136 14.3313C63.8802 14.2171 64.1294 14.0657 64.3536 13.8816C64.5249 13.7432 64.6687 13.5739 64.7776 13.3825L64.812 14.5472H66.972V7.34085C66.9808 6.85782 66.8747 6.3796 66.6624 5.94563C66.4565 5.54092 66.161 5.18852 65.7984 4.91524ZM64.5888 10.1536V10.4001C64.5932 10.7114 64.5748 11.0226 64.5336 11.3313C64.4868 11.5841 64.36 11.8151 64.172 11.9904C63.8852 12.2354 63.5528 12.4214 63.1939 12.5375C62.835 12.6537 62.4567 12.6977 62.0808 12.6672C61.7206 12.6923 61.3624 12.5969 61.0624 12.396C60.9502 12.3062 60.861 12.191 60.8019 12.0601C60.7428 11.9291 60.7156 11.786 60.7224 11.6424V11.4192C60.7145 11.2496 60.7416 11.0801 60.8022 10.9213C60.8628 10.7626 60.9554 10.6181 61.0744 10.4969C61.4388 10.2288 61.8901 10.1064 62.34 10.1536H64.5888Z" fill="black"/>
  <path d="M78.3752 4.2688H75.34L71.5672 8.53599V0.800781H69.1672V14.5472H71.5672V11.4872L72.6992 10.2296L75.4576 14.5328L75.4672 14.5472H78.5296L74.376 8.53039L78.3752 4.2688Z" fill="black"/>
  <path d="M91.4928 9.23518L86.9328 0.816797L86.924 0.800781H84.1488V14.5472H86.4368V5.04639C86.4368 5.04639 87.0392 6.11678 87.2112 6.41118L91.7904 14.5312L91.7992 14.5472H94.5752V0.800781H92.2872V10.7088C92.2872 10.7088 91.6296 9.48238 91.4928 9.23518Z" fill="black"/>
  <path d="M104.408 5.17676C104 4.79176 103.512 4.50143 102.978 4.32637C102.398 4.13599 101.79 4.04142 101.179 4.04636C100.555 4.04094 99.9336 4.13547 99.3391 4.32637C98.7869 4.50505 98.28 4.80147 97.8536 5.19517C97.4137 5.61313 97.0722 6.12356 96.8536 6.68958C96.5973 7.37773 96.4741 8.10824 96.4903 8.84236V9.89917C96.4665 10.6858 96.6025 11.4691 96.8903 12.2016C97.1242 12.7707 97.4894 13.2765 97.9559 13.6776C98.3956 14.0433 98.9084 14.3109 99.4599 14.4624C100.024 14.6178 100.607 14.6961 101.193 14.6952C102.021 14.7121 102.848 14.6119 103.649 14.3976C104.27 14.2218 104.86 13.952 105.4 13.5976L105.425 13.5816L104.43 11.8416L104.402 11.8568C103.939 12.1304 103.444 12.3454 102.927 12.4968C102.403 12.6324 101.864 12.6975 101.322 12.6904C100.649 12.7355 99.9853 12.5159 99.472 12.0784C99.249 11.8393 99.0771 11.5571 98.9671 11.2492C98.857 10.9414 98.811 10.6143 98.8319 10.288H105.682V8.56958C105.695 7.8983 105.581 7.23065 105.346 6.60156C105.141 6.06403 104.821 5.57779 104.408 5.17676ZM101.142 6.03838C101.491 6.02839 101.839 6.0826 102.169 6.19837C102.428 6.29528 102.664 6.44452 102.862 6.63677C103.041 6.81479 103.175 7.0328 103.253 7.27278C103.333 7.52118 103.373 7.78064 103.372 8.04158V8.45437H98.8376V8.09678C98.8326 7.82742 98.8808 7.55971 98.9796 7.30903C99.0783 7.05836 99.2255 6.82963 99.4128 6.63596C99.6449 6.42388 99.9181 6.26176 100.216 6.15964C100.513 6.05753 100.828 6.01761 101.142 6.04236V6.03838Z" fill="black"/>
  <path d="M112.902 12.336C112.661 12.4368 112.412 12.5137 112.157 12.5656C111.929 12.6083 111.699 12.6297 111.467 12.6296C111.214 12.6436 110.964 12.5742 110.754 12.432C110.653 12.3215 110.578 12.1901 110.534 12.047C110.489 11.904 110.477 11.753 110.498 11.6048V6.26079H113.075V4.2688H110.498V0.800781L108.098 1.6552V4.2688H106.466V6.26079H108.098V11.6208C108.093 12.0576 108.143 12.4934 108.247 12.9176C108.336 13.2766 108.51 13.6087 108.755 13.8856C109.019 14.1646 109.349 14.3716 109.715 14.4872C110.192 14.6355 110.691 14.7049 111.19 14.6928C111.608 14.6974 112.025 14.6503 112.431 14.5528C112.728 14.4832 113.019 14.3866 113.298 14.264L113.321 14.2528L112.938 12.3184L112.902 12.336Z" fill="black"/>
  <path d="M123.64 12.1849H123.617L121.862 4.29368L121.856 4.26887H119.602L117.749 12.1849H117.726L116.23 4.29446L116.225 4.26887H113.655L116.205 14.5233L116.21 14.5473H118.986L120.673 7.35447H120.697L122.366 14.5473H125.141L127.668 4.30728L127.678 4.26807H125.278L123.64 12.1849Z" fill="black"/>
  <path d="M136.693 5.27911C136.256 4.86998 135.738 4.55779 135.173 4.3631C133.886 3.94017 132.498 3.94017 131.212 4.3631C130.649 4.55803 130.133 4.86994 129.699 5.27831C129.27 5.69311 128.936 6.1969 128.722 6.75431C128.483 7.39837 128.366 8.08161 128.378 8.76871V9.9735C128.367 10.6571 128.484 11.3367 128.722 11.9775C128.933 12.5382 129.265 13.0454 129.694 13.4631C130.129 13.8713 130.644 14.1831 131.207 14.3783C132.494 14.8007 133.881 14.8007 135.168 14.3783C135.734 14.1844 136.252 13.8724 136.688 13.4631C137.117 13.0452 137.448 12.538 137.659 11.9775C137.898 11.3367 138.015 10.6572 138.005 9.9735V8.76871C138.016 8.08156 137.899 7.39832 137.659 6.75431C137.448 6.19826 137.118 5.69488 136.693 5.27911ZM134.149 12.4463C133.528 12.6415 132.862 12.6415 132.241 12.4463C131.957 12.3536 131.698 12.1977 131.483 11.9903C131.255 11.7582 131.084 11.4768 130.982 11.1679C130.851 10.771 130.788 10.3546 130.798 9.93671V8.80551C130.761 8.43727 130.799 8.06534 130.91 7.71241C131.022 7.35949 131.204 7.03295 131.446 6.7527C131.945 6.36188 132.56 6.14955 133.194 6.14955C133.828 6.14955 134.444 6.36188 134.943 6.7527C135.185 7.03277 135.367 7.35929 135.479 7.71227C135.59 8.06524 135.629 8.43725 135.591 8.80551V9.93671C135.6 10.3545 135.538 10.7708 135.408 11.1679C135.305 11.4767 135.133 11.758 134.906 11.9903C134.691 12.1963 134.432 12.3509 134.149 12.4423V12.4463Z" fill="black"/>
  <path d="M145.768 4.10251C145.509 4.06556 145.247 4.04684 144.985 4.0465C144.355 4.01865 143.731 4.18239 143.196 4.51611C142.747 4.82748 142.379 5.24271 142.125 5.72651V4.26891H139.818V14.5473H142.218V8.4537C142.214 8.14315 142.273 7.8351 142.392 7.54811C142.502 7.28183 142.664 7.03967 142.867 6.83529C143.07 6.63293 143.312 6.47447 143.579 6.36972C143.862 6.25841 144.163 6.20244 144.466 6.2049C144.713 6.20109 144.959 6.21957 145.202 6.2601C145.391 6.29517 145.575 6.35044 145.752 6.42492L145.784 6.43852L146.471 4.26252L146.442 4.25212C146.222 4.18276 145.996 4.13269 145.768 4.10251Z" fill="black"/>
  <path d="M152.848 8.53044L156.848 4.26885H153.813L150.04 8.53603V0.800049H147.64V14.5464H150.04V11.4864L151.172 10.2288L153.93 14.532L153.94 14.5464H157.002L152.848 8.53044Z" fill="black"/>
</svg>